<svg width="148" height="148" viewBox="0 0 148 148" fill="none" xmlns="http://www.w3.org/2000/svg">
<path d="M96.2617 74C96.2617 86.2717 86.2717 96.2617 74 96.2617C61.7283 96.2617 51.7383 86.2717 51.7383 74C51.7383 61.7283 61.7283 51.7383 74 51.7383C86.2717 51.7383 96.2617 61.7283 96.2617 74ZM74 0C33.1952 0 0 33.1952 0 74C0 114.805 33.1952 148 74 148C88.948 148 103.359 143.548 115.687 135.13L115.896 134.982L105.925 123.395L105.758 123.5C96.2892 129.598 85.2629 132.837 74 132.83C41.5633 132.83 15.17 106.437 15.17 74C15.17 41.5633 41.5633 15.17 74 15.17C106.437 15.17 132.83 41.5633 132.83 74C132.823 78.2515 132.358 82.4898 131.442 86.6417C129.586 94.2822 124.234 96.6193 120.219 96.311C116.186 95.9842 111.462 93.1043 111.425 86.0682V74C111.416 64.0766 107.47 54.5623 100.453 47.5448C93.437 40.5273 83.9234 36.5798 74 36.5683C64.0755 36.5781 54.5603 40.525 47.5426 47.5426C40.525 54.5603 36.5781 64.0755 36.5683 74C36.5781 83.9245 40.525 93.4397 47.5426 100.457C54.5603 107.475 64.0755 111.422 74 111.432C78.9324 111.444 83.8177 110.473 88.3706 108.575C92.9234 106.678 97.0525 103.892 100.517 100.381C102.706 103.819 105.734 106.645 109.315 108.592C112.896 110.539 116.914 111.544 120.99 111.512C126.38 111.512 131.72 109.711 136.018 106.449C140.452 103.076 143.764 98.2103 145.595 92.3582C145.885 91.4085 146.428 89.2502 146.428 89.2317L146.44 89.1515C147.519 84.4648 148 79.7782 148 74C148 33.1952 114.805 0 74 0Z" fill="#192C48"/>
</svg>
