<svg width="80" height="80" viewBox="0 0 80 80" fill="none" xmlns="http://www.w3.org/2000/svg">
<path d="M2.39979 34.36L25.5198 11.2L32.2798 18C31.3198 21.4 32.8798 25.12 35.9998 26.92V49.08C33.5998 50.44 31.9998 53.04 31.9998 56C31.9998 58.1218 32.8426 60.1566 34.3429 61.6569C35.8432 63.1572 37.8781 64 39.9998 64C42.1215 64 44.1563 63.1572 45.6566 61.6569C47.1569 60.1566 47.9998 58.1218 47.9998 56C47.9998 53.04 46.3998 50.44 43.9998 49.08V29.64L52.2798 38C51.9998 38.6 51.9998 39.28 51.9998 40C51.9998 42.1218 52.8426 44.1566 54.3429 45.6569C55.8432 47.1572 57.8781 48 59.9998 48C62.1215 48 64.1563 47.1572 65.6566 45.6569C67.1569 44.1566 67.9998 42.1218 67.9998 40C67.9998 37.8783 67.1569 35.8435 65.6566 34.3432C64.1563 32.8429 62.1215 32 59.9998 32C59.2798 32 58.5998 32 57.9998 32.28L47.7198 22C48.2164 20.1474 48.0239 18.1774 47.1779 16.456C46.3319 14.7346 44.8899 13.3787 43.1198 12.64C41.3998 12 39.5998 11.84 37.9998 12.28L31.1998 5.52003L34.3598 2.40003C37.4798 -0.759971 42.5198 -0.759971 45.6398 2.40003L77.5998 34.36C80.7598 37.48 80.7598 42.52 77.5998 45.64L45.6398 77.6C42.5198 80.76 37.4798 80.76 34.3598 77.6L2.39979 45.64C-0.760215 42.52 -0.760215 37.48 2.39979 34.36Z" fill="#192C48"/>
</svg>
