<svg width="47" height="46" viewBox="0 0 47 46" fill="none" xmlns="http://www.w3.org/2000/svg">
<path d="M23.5002 0.583313C20.4907 0.583313 17.5107 1.17607 14.7303 2.32774C11.95 3.47941 9.42364 5.16744 7.29563 7.29545C2.99792 11.5932 0.583496 17.4221 0.583496 23.5C0.583496 33.6291 7.16058 42.2229 16.2585 45.2708C17.4043 45.4541 17.771 44.7437 17.771 44.125V40.2521C11.4231 41.6271 10.071 37.1812 10.071 37.1812C9.01683 34.5229 7.52725 33.8125 7.52725 33.8125C5.44183 32.3916 7.68766 32.4375 7.68766 32.4375C9.97933 32.5979 11.1939 34.7979 11.1939 34.7979C13.1877 38.2812 16.5564 37.25 17.8627 36.7C18.0689 35.2104 18.6647 34.2021 19.3064 33.6291C14.2189 33.0562 8.87933 31.0854 8.87933 22.3541C8.87933 19.8104 9.75016 17.7708 11.2397 16.1437C11.0106 15.5708 10.2085 13.1875 11.4689 10.0937C11.4689 10.0937 13.3939 9.47498 17.771 12.4312C19.5814 11.9271 21.5522 11.675 23.5002 11.675C25.4481 11.675 27.4189 11.9271 29.2293 12.4312C33.6064 9.47498 35.5314 10.0937 35.5314 10.0937C36.7918 13.1875 35.9897 15.5708 35.7606 16.1437C37.2502 17.7708 38.121 19.8104 38.121 22.3541C38.121 31.1083 32.7585 33.0333 27.6481 33.6062C28.4731 34.3166 29.2293 35.7146 29.2293 37.8458V44.125C29.2293 44.7437 29.596 45.4771 30.7647 45.2708C39.8627 42.2 46.4168 33.6291 46.4168 23.5C46.4168 20.4905 45.8241 17.5105 44.6724 14.7302C43.5207 11.9498 41.8327 9.42346 39.7047 7.29545C37.5767 5.16744 35.0504 3.47941 32.27 2.32774C29.4896 1.17607 26.5096 0.583313 23.5002 0.583313Z" fill="#FEFFFE"/>
</svg>
