<svg width="44" height="44" viewBox="0 0 44 44" fill="none" xmlns="http://www.w3.org/2000/svg">
<path d="M5 0C3.67715 0.0104578 2.41145 0.5406 1.47602 1.47602C0.5406 2.41145 0.0104578 3.67715 0 5V39C0 41.734 2.266 44 5 44H39C41.734 44 44 41.734 44 39V5C44 2.266 41.734 0 39 0H5ZM5 4H39C39.57 4 40 4.43 40 5V39C40.0027 39.1321 39.9787 39.2633 39.9294 39.3859C39.8801 39.5084 39.8066 39.6198 39.7132 39.7132C39.6198 39.8066 39.5084 39.8801 39.3859 39.9294C39.2633 39.9787 39.1321 40.0027 39 40H5C4.86793 40.0027 4.73667 39.9787 4.61412 39.9294C4.49156 39.8801 4.38023 39.8066 4.28683 39.7132C4.19342 39.6198 4.11986 39.5084 4.07057 39.3859C4.02128 39.2633 3.99728 39.1321 4 39V5C4 4.43 4.43 4 5 4ZM10.876 7.438C10.4177 7.42694 9.96176 7.50767 9.53509 7.67542C9.10842 7.84318 8.71961 8.09458 8.39154 8.41483C8.06348 8.73508 7.80277 9.11771 7.62478 9.54021C7.44678 9.9627 7.35508 10.4165 7.35508 10.875C7.35508 11.3335 7.44678 11.7873 7.62478 12.2098C7.80277 12.6323 8.06348 13.0149 8.39154 13.3352C8.71961 13.6554 9.10842 13.9068 9.53509 14.0746C9.96176 14.2423 10.4177 14.3231 10.876 14.312C11.7732 14.2904 12.6264 13.9187 13.2533 13.2765C13.8802 12.6343 14.2311 11.7725 14.2311 10.875C14.2311 9.97754 13.8802 9.11566 13.2533 8.47346C12.6264 7.83126 11.7732 7.45964 10.876 7.438ZM28.936 16.562C26.07 16.562 24.164 18.132 23.376 19.624H23.25V17H17.624V36H23.5V26.624C23.5 24.148 23.992 21.75 27.062 21.75C30.086 21.75 30.126 24.546 30.126 26.75V36H36V25.562C36 20.454 34.912 16.562 28.936 16.562ZM8 17V36H13.938V17H8Z" fill="#FEFFFE"/>
</svg>
