<svg width="69" height="70" viewBox="0 0 69 70" fill="none" xmlns="http://www.w3.org/2000/svg">
<path d="M61.0417 0.875C63.0529 0.875 64.9817 1.67396 66.4039 3.09611C67.826 4.51826 68.625 6.44711 68.625 8.45833V61.5417C68.625 63.5529 67.826 65.4817 66.4039 66.9039C64.9817 68.326 63.0529 69.125 61.0417 69.125H7.95833C5.94711 69.125 4.01826 68.326 2.59611 66.9039C1.17396 65.4817 0.375 63.5529 0.375 61.5417V8.45833C0.375 6.44711 1.17396 4.51826 2.59611 3.09611C4.01826 1.67396 5.94711 0.875 7.95833 0.875H61.0417ZM59.1458 59.6458V39.55C59.1458 36.2717 57.8435 33.1277 55.5254 30.8096C53.2073 28.4915 50.0633 27.1892 46.785 27.1892C43.5621 27.1892 39.8083 29.1608 37.9883 32.1183V27.9096H27.4096V59.6458H37.9883V40.9529C37.9883 38.0333 40.3392 35.6446 43.2588 35.6446C44.6666 35.6446 46.0168 36.2039 47.0123 37.1994C48.0078 38.1949 48.5671 39.5451 48.5671 40.9529V59.6458H59.1458ZM15.0867 21.9567C16.7761 21.9567 18.3963 21.2855 19.5909 20.0909C20.7855 18.8963 21.4567 17.2761 21.4567 15.5867C21.4567 12.0604 18.6129 9.17875 15.0867 9.17875C13.3872 9.17875 11.7573 9.85387 10.5556 11.0556C9.35387 12.2573 8.67875 13.8872 8.67875 15.5867C8.67875 19.1129 11.5604 21.9567 15.0867 21.9567ZM20.3571 59.6458V27.9096H9.85417V59.6458H20.3571Z" fill="#192C48"/>
</svg>
