<svg width="44" height="38" viewBox="0 0 44 38" fill="none" xmlns="http://www.w3.org/2000/svg">
<path d="M3.375 7.96088C2.39772 8.58537 1.59345 9.44591 1.03637 10.4631C0.479296 11.4804 0.187362 12.6215 0.1875 13.7812V26.5312C0.1875 32.6938 5.18125 37.6875 11.3438 37.6875H30.4688C32.9125 37.6875 35.0609 36.4168 36.2891 34.5H11.3438C9.23031 34.5 7.20342 33.6604 5.70899 32.166C4.21456 30.6716 3.375 28.6447 3.375 26.5312V7.96088ZM5.5 9.23375V25.4688C5.49988 27.2328 6.1748 28.93 7.3863 30.2122C8.5978 31.4945 10.254 32.2645 12.0152 32.3644L12.4062 32.375H36.8438C38.6078 32.3751 40.305 31.7002 41.5872 30.4887C42.8695 29.2772 43.6395 27.621 43.7394 25.8598L43.75 25.4688V9.23375L25.3688 18.911C25.1395 19.032 24.8842 19.0952 24.625 19.0952C24.3658 19.0952 24.1105 19.032 23.8812 18.911L5.5 9.23375ZM36.8438 0.5H12.4062C10.8641 0.499535 9.36617 1.01523 8.15114 1.96492C6.93611 2.91461 6.07389 4.24365 5.70187 5.74025L24.625 15.7001L43.5481 5.74025C43.1925 4.31061 42.389 3.03215 41.2551 2.09165C40.1211 1.15116 38.7161 0.597916 37.2454 0.51275L36.8438 0.5Z" fill="#FEFFFE"/>
</svg>
