<svg width="49" height="49" viewBox="0 0 49 49" fill="none" xmlns="http://www.w3.org/2000/svg">
<path d="M37.625 8.75H32.375V6.125H35C35.6962 6.125 36.3639 5.84844 36.8562 5.35615C37.3484 4.86387 37.625 4.19619 37.625 3.5C37.625 2.80381 37.3484 2.13613 36.8562 1.64384C36.3639 1.15156 35.6962 0.875 35 0.875H29.75C29.0538 0.875 28.3861 1.15156 27.8938 1.64384C27.4016 2.13613 27.125 2.80381 27.125 3.5V8.75H25.7049C28.3066 11.6285 29.748 15.3699 29.75 19.25V29.75C29.75 30.4462 29.4734 31.1139 28.9812 31.6062C28.4889 32.0984 27.8212 32.375 27.125 32.375C26.4288 32.375 25.7611 32.0984 25.2688 31.6062C24.7766 31.1139 24.5 30.4462 24.5 29.75V19.25C24.5 13.4592 19.7908 8.75 14 8.75C13.804 8.7535 13.6115 8.778 13.4225 8.8235C13.1758 8.80775 12.9395 8.75 12.6875 8.75C9.5557 8.75347 6.55316 9.99912 4.33864 12.2136C2.12412 14.4282 0.878474 17.4307 0.875 20.5625V35C0.875 35.6962 1.15156 36.3639 1.64384 36.8562C2.13613 37.3484 2.80381 37.625 3.5 37.625H21.875V45.5C21.875 46.1962 22.1516 46.8639 22.6438 47.3562C23.1361 47.8484 23.8038 48.125 24.5 48.125H29.75C30.4462 48.125 31.1139 47.8484 31.6062 47.3562C32.0984 46.8639 32.375 46.1962 32.375 45.5V37.625H45.5C46.1962 37.625 46.8639 37.3484 47.3562 36.8562C47.8484 36.3639 48.125 35.6962 48.125 35V19.25C48.125 13.4592 43.4158 8.75 37.625 8.75ZM14 31.0625H11.375C10.6788 31.0625 10.0111 30.7859 9.51885 30.2937C9.02656 29.8014 8.75 29.1337 8.75 28.4375C8.75 27.7413 9.02656 27.0736 9.51885 26.5813C10.0111 26.0891 10.6788 25.8125 11.375 25.8125H14C14.6962 25.8125 15.3639 26.0891 15.8562 26.5813C16.3484 27.0736 16.625 27.7413 16.625 28.4375C16.625 29.1337 16.3484 29.8014 15.8562 30.2937C15.3639 30.7859 14.6962 31.0625 14 31.0625Z" fill="#FEFFFE"/>
</svg>
