<svg width="45" height="46" viewBox="0 0 45 46" fill="none" xmlns="http://www.w3.org/2000/svg">
<path d="M19.9375 33.5V19.0625C19.9375 16.6258 18.9926 14.2889 17.3106 12.566C15.6286 10.843 13.3474 9.875 10.9688 9.875M19.9375 33.5H2V19.0625C2 16.6258 2.94492 14.2889 4.62689 12.566C6.30885 10.843 8.59009 9.875 10.9688 9.875M19.9375 33.5V44M10.9688 9.875H27.625M27.625 9.875V2H34.0312M27.625 9.875V17.75M18.6562 33.5H43V17.75C43 15.6614 42.1901 13.6584 40.7484 12.1815C39.3067 10.7047 37.3514 9.875 35.3125 9.875M30.1875 33.5V44M9.6875 26.9375H12.25" stroke="#FEFFFE" stroke-width="4" stroke-linecap="round" stroke-linejoin="round"/>
</svg>
