<svg width="30" height="45" viewBox="0 0 30 45" fill="none" xmlns="http://www.w3.org/2000/svg">
<path d="M7.64062 44.3438C11.7312 44.3438 15.0312 41.0437 15.0312 36.9531V29.5625H7.64062C3.55 29.5625 0.25 32.8625 0.25 36.9531C0.25 41.0437 3.55 44.3438 7.64062 44.3438ZM0.25 22.1719C0.25 18.0813 3.55 14.7812 7.64062 14.7812H15.0312V29.5625H7.64062C3.55 29.5625 0.25 26.2625 0.25 22.1719ZM0.25 7.39062C0.25 3.3 3.55 0 7.64062 0H15.0312V14.7812H7.64062C3.55 14.7812 0.25 11.4812 0.25 7.39062ZM15.0312 0H22.4219C26.5125 0 29.8125 3.3 29.8125 7.39062C29.8125 11.4812 26.5125 14.7812 22.4219 14.7812H15.0312V0ZM29.8125 22.1719C29.8125 26.2625 26.5125 29.5625 22.4219 29.5625C18.3313 29.5625 15.0312 26.2625 15.0312 22.1719C15.0312 18.0813 18.3313 14.7812 22.4219 14.7812C26.5125 14.7812 29.8125 18.0813 29.8125 22.1719Z" fill="#FEFFFE"/>
</svg>
