<svg width="60" height="60" viewBox="0 0 60 60" fill="none" xmlns="http://www.w3.org/2000/svg">
<path d="M15 7.5C13.0109 7.5 11.1032 8.29018 9.6967 9.6967C8.29018 11.1032 7.5 13.0109 7.5 15V45C7.5 46.9891 8.29018 48.8968 9.6967 50.3033C11.1032 51.7098 13.0109 52.5 15 52.5H45C46.9891 52.5 48.8968 51.7098 50.3033 50.3033C51.7098 48.8968 52.5 46.9891 52.5 45V15C52.5 13.0109 51.7098 11.1032 50.3033 9.6967C48.8968 8.29018 46.9891 7.5 45 7.5H15ZM33.335 40.1375C35.135 41.5875 36.9317 42.3025 38.725 42.2825C39.825 42.2825 40.6683 42.0808 41.255 41.6775C41.5282 41.5002 41.7504 41.2548 41.8999 40.9655C42.0494 40.6761 42.1209 40.3529 42.1075 40.0275C42.1113 39.6726 42.0371 39.3212 41.8903 38.9981C41.7434 38.6749 41.5274 38.388 41.2575 38.1575C40.6708 37.6458 39.5608 37.1325 37.9275 36.6175C35.9658 36.0508 34.4533 35.3175 33.39 34.4175C32.3467 33.5175 31.815 32.2617 31.795 30.65C31.795 29.1283 32.455 27.8542 33.775 26.8275C35.0583 25.8008 36.7 25.2875 38.7 25.2875C41.4867 25.2875 43.7225 25.9658 45.4075 27.3225L43.4825 30.32C42.7893 29.7811 41.9942 29.3882 41.145 29.165C40.3819 28.9093 39.5846 28.7703 38.78 28.7525C37.83 28.7525 37.0692 28.9267 36.4975 29.275C35.9308 29.625 35.6475 30.0833 35.6475 30.65C35.6475 31.2733 35.995 31.805 36.69 32.245C37.39 32.6683 38.5817 33.1358 40.265 33.6475C42.3 34.2525 43.7483 35.0592 44.61 36.0675C45.4717 37.0758 45.9025 38.3592 45.9025 39.9175C45.9025 41.5125 45.2883 42.8875 44.06 44.0425C42.85 45.1792 41.09 45.775 38.78 45.83C35.755 45.83 33.225 44.9225 31.19 43.1075L33.335 40.1375ZM19.51 41.7325C20.0967 42.0992 20.8025 42.2825 21.6275 42.2825C22.4892 42.2825 23.2042 42.035 23.7725 41.54C24.3392 41.0267 24.6233 40.1375 24.625 38.8725V25.6175H28.3375V39.5875C28.2825 41.7508 27.6592 43.3092 26.4675 44.2625C25.8154 44.8138 25.0574 45.2256 24.24 45.4725C23.482 45.7033 22.6948 45.8237 21.9025 45.83C20.5275 45.83 19.3083 45.5917 18.245 45.115C17.1083 44.6033 16.155 43.6958 15.385 42.3925L17.97 40.275C18.445 40.9167 18.9583 41.4025 19.51 41.7325Z" fill="#FEFFFE"/>
</svg>
