<svg width="52" height="32" viewBox="0 0 52 32" fill="none" xmlns="http://www.w3.org/2000/svg">
<path d="M26 0C19.0667 0 14.7333 3.46667 13 10.4C15.6 6.93333 18.6333 5.63333 22.1 6.5C24.0782 6.994 25.4908 8.42833 27.0573 10.0187C29.6075 12.6057 32.5563 15.6 39 15.6C45.9333 15.6 50.2667 12.1333 52 5.2C49.4 8.66667 46.3667 9.96667 42.9 9.1C40.9218 8.606 39.5092 7.17167 37.9427 5.58133C35.3947 2.99433 32.4458 0 26 0ZM13 15.6C6.06667 15.6 1.73333 19.0667 0 26C2.6 22.5333 5.63333 21.2333 9.1 22.1C11.0782 22.594 12.4908 24.0283 14.0573 25.6187C16.6075 28.2057 19.5563 31.2 26 31.2C32.9333 31.2 37.2667 27.7333 39 20.8C36.4 24.2667 33.3667 25.5667 29.9 24.7C27.9218 24.206 26.5092 22.7717 24.9427 21.1813C22.3947 18.5943 19.4458 15.6 13 15.6Z" fill="#FEFFFE"/>
</svg>
