<svg width="50" height="50" viewBox="0 0 50 50" fill="none" xmlns="http://www.w3.org/2000/svg">
<path d="M25 0C11.13 0 0 11.21 0 25C0 38.79 11.13 50 25 50C38.87 50 50 38.71 50 25C50 11.29 38.71 0 25 0ZM47.1775 25C47.1811 28.9567 46.1199 32.8415 44.1054 36.2469C42.0908 39.6523 39.197 42.4529 35.7275 44.355L42.1775 27.7425C42.5 26.855 44.7575 21.37 45.565 16.6925C46.6165 19.3366 47.1651 22.1545 47.1775 25ZM29.755 14.1125H18.3875C17.9025 14.1125 17.58 14.4375 17.58 14.92C17.58 15.4025 17.905 15.725 18.3875 15.725H20L22.8225 22.985L19.435 31.6925L13.3075 15.645H15.2425C15.725 15.645 16.0475 15.3225 16.0475 14.8375C16.0475 14.355 15.725 14.0325 15.2425 14.0325H11.935L6.6125 13.95C10.2425 7.58 17.2575 3.3875 25 3.3875C30.645 3.3875 35.8875 5.645 39.7575 9.275C37.7425 9.5975 36.13 11.21 35.645 13.145C35.16 15.4025 35.97 17.2575 36.855 18.9525C37.7425 20.8075 38.71 22.5 37.9825 24.5175L35 32.2575L28.63 15.645H29.8375C30.3225 15.645 30.645 15.3225 30.645 14.8375C30.645 14.4375 30.0775 14.1125 29.755 14.1125ZM2.825 25C2.825 22.1775 3.39 19.435 4.4375 16.935L15.325 44.92C7.825 41.37 2.825 33.79 2.825 25ZM25.245 29.7575L31.695 46.13C29.52 46.775 27.34 47.1775 25.0025 47.1775C22.825 47.1775 20.81 46.935 18.8725 46.29L25.245 29.7575Z" fill="#FEFFFE"/>
</svg>
