<svg width="72" height="72" viewBox="0 0 72 72" fill="none" xmlns="http://www.w3.org/2000/svg">
<path d="M63.88 0H8C3.6 0 0 3.6 0 8V64C0 68.4 3.6 72 8 72H63.88C68.28 72 71.88 68.4 71.88 64V8C71.88 5.87827 71.0371 3.84344 69.5369 2.34315C68.0366 0.842854 66.0017 0 63.88 0ZM57.52 55.92C57.4 55.96 57.24 56 57.12 56H48.08C47.6885 56.0066 47.304 55.8959 46.9761 55.682C46.6481 55.4681 46.3918 55.1609 46.24 54.8L36.4 31.84C36.32 31.6 36.08 31.48 35.88 31.56C35.8161 31.5841 35.7581 31.6215 35.7098 31.6698C35.6615 31.7181 35.6241 31.7761 35.6 31.84L29.48 46.44C29.36 46.72 29.48 47 29.76 47.12C29.84 47.16 29.88 47.16 29.96 47.16H36.68C37.08 47.16 37.48 47.4 37.64 47.8L40.6 54.36C40.88 54.96 40.56 55.68 39.96 55.96C39.72 55.96 39.56 56 39.4 56H14.92C14.32 56 13.8 55.48 13.8 54.88C13.8 54.72 13.84 54.6 13.88 54.44L29.48 17.32C29.8 16.52 30.6 16 31.44 16H40.44C41.32 16 42.08 16.52 42.4 17.32L58.08 54.44C58.36 55 58.12 55.68 57.52 55.92Z" fill="#192C48"/>
</svg>
