<svg width="72" height="72" viewBox="0 0 72 72" fill="none" xmlns="http://www.w3.org/2000/svg">
<path d="M55.125 0H16.875C7.55519 0 0 7.55519 0 16.875V55.125C0 64.4448 7.55519 72 16.875 72H55.125C64.4448 72 72 64.4448 72 55.125V16.875C72 7.55519 64.4448 0 55.125 0Z" fill="#192C48"/>
<mask id="mask0_132_49" style="mask-type:luminance" maskUnits="userSpaceOnUse" x="17" y="7" width="38" height="58">
<path d="M17.1562 7.875H54.6638V64.125H17.1562V7.875Z" fill="white"/>
</mask>
<g mask="url(#mask0_132_49)">
<path d="M26.5351 64.125C31.7101 64.125 35.91 59.9251 35.91 54.7501V45.3749H26.5351C21.3601 45.3749 17.1599 49.5751 17.1599 54.7501C17.1599 59.9251 21.3601 64.125 26.5351 64.125Z" fill="#0ACF83"/>
<path d="M17.1599 36C17.1599 30.825 21.3601 26.6251 26.5351 26.6251H35.91V45.3749H26.5351C21.3601 45.3749 17.1599 41.175 17.1599 36Z" fill="#A259FF"/>
<path d="M17.1599 17.2499C17.1599 12.0749 21.3601 7.875 26.5351 7.875H35.91V26.6251H26.5351C21.3601 26.6251 17.1599 22.4249 17.1599 17.2499Z" fill="#F24E1E"/>
<path d="M35.9102 7.875H45.2851C50.4601 7.875 54.6602 12.0749 54.6602 17.2499C54.6602 22.4249 50.4601 26.6251 45.2851 26.6251H35.9102V7.875Z" fill="#FF7262"/>
<path d="M54.6602 36C54.6602 41.175 50.4601 45.3749 45.2851 45.3749C40.1101 45.3749 35.9102 41.175 35.9102 36C35.9102 30.825 40.1101 26.6251 45.2851 26.6251C50.4601 26.6251 54.6602 30.825 54.6602 36Z" fill="#1ABCFE"/>
</g>
</svg>
