<svg width="72" height="73" viewBox="0 0 72 73" fill="none" xmlns="http://www.w3.org/2000/svg">
<path d="M36.3113 5.41636e-05C22.1419 -0.0246123 8.80531 8.37739 2.6847 21.6768L19.8947 21.7177V23.5999C14.5953 22.9622 15.062 25.7141 15.8122 28.635L27.1098 56.9493L35.4135 37.4843L31.6015 28.3622C30.2169 25.9189 30.1877 23.2083 24.5229 23.4636L24.6025 21.7291L49.8435 21.7905V23.7341C46.8875 23.9075 43.3292 22.9909 45.2154 29.0442L55.4241 55.8605L61.0047 40.2053C62.8322 33.6427 61.1123 27.3361 58.9407 21.1517C57.7329 17.0029 58.2962 13.5381 63.7098 12.1637C55.4465 3.72896 45.6964 0.016402 36.3116 5.41636e-05H36.3113ZM70.6404 24.7569L54.2759 67.4125C58.7952 63.4984 63.4289 62.0737 69.0991 51.2436C72.8718 42.2355 72.4834 33.8905 70.6404 24.7569V24.7569ZM0.952554 25.448C-0.644689 38.0405 -0.498571 41.7287 3.4553 52.012C8.60921 61.8608 12.6059 63.9358 18.2785 67.7989L0.952554 25.448ZM36.9501 41.4259L24.8229 70.6858C33.3354 73.1155 40.9521 72.8114 47.9249 70.1084L36.9501 41.4259Z" fill="#192C48"/>
</svg>
