<svg width="86" height="86" viewBox="0 0 86 86" fill="none" xmlns="http://www.w3.org/2000/svg">
<g clip-path="url(#clip0_131_16)">
<path d="M70.88 7H15C10.6 7 7 10.6 7 15V71C7 75.4 10.6 79 15 79H70.88C75.28 79 78.88 75.4 78.88 71V15C78.88 12.8783 78.0371 10.8434 76.5369 9.34315C75.0366 7.84285 73.0017 7 70.88 7ZM64.52 62.92C64.4 62.96 64.24 63 64.12 63H55.08C54.6885 63.0066 54.304 62.8959 53.9761 62.682C53.6481 62.4681 53.3918 62.1609 53.24 61.8L43.4 38.84C43.32 38.6 43.08 38.48 42.88 38.56C42.8161 38.5841 42.7581 38.6215 42.7098 38.6698C42.6615 38.7181 42.6241 38.7761 42.6 38.84L36.48 53.44C36.36 53.72 36.48 54 36.76 54.12C36.84 54.16 36.88 54.16 36.96 54.16H43.68C44.08 54.16 44.48 54.4 44.64 54.8L47.6 61.36C47.88 61.96 47.56 62.68 46.96 62.96C46.72 62.96 46.56 63 46.4 63H21.92C21.32 63 20.8 62.48 20.8 61.88C20.8 61.72 20.84 61.6 20.88 61.44L36.48 24.32C36.8 23.52 37.6 23 38.44 23H47.44C48.32 23 49.08 23.52 49.4 24.32L65.08 61.44C65.36 62 65.12 62.68 64.52 62.92Z" fill="#FEFFFE"/>
</g>
<defs>
<clipPath id="clip0_131_16">
<rect width="86" height="86" fill="white"/>
</clipPath>
</defs>
</svg>
