<svg width="74" height="74" viewBox="0 0 74 74" fill="none" xmlns="http://www.w3.org/2000/svg">
<path fill-rule="evenodd" clip-rule="evenodd" d="M9 0C4.02945 0 0 4.02943 0 9V65C0 69.9706 4.02945 74 9 74H65C69.9706 74 74 69.9706 74 65V9C74 4.02943 69.9706 0 65 0H9ZM38.0312 52.9531C38.0312 57.0437 34.7313 60.3438 30.6406 60.3438C26.55 60.3438 23.25 57.0437 23.25 52.9531C23.25 48.8625 26.55 45.5625 30.6406 45.5625C26.55 45.5625 23.25 42.2625 23.25 38.1719C23.25 34.0813 26.55 30.7812 30.6406 30.7812C26.55 30.7812 23.25 27.4812 23.25 23.3906C23.25 19.3 26.55 16 30.6406 16H38.0312H45.4219C49.5125 16 52.8125 19.3 52.8125 23.3906C52.8125 27.4812 49.5125 30.7812 45.4219 30.7812H38.0312V38.1719V45.5625V52.9531ZM38.0312 38.1719C38.0312 34.0813 41.3312 30.7812 45.4219 30.7812C49.5125 30.7812 52.8125 34.0813 52.8125 38.1719C52.8125 42.2625 49.5125 45.5625 45.4219 45.5625C41.3312 45.5625 38.0312 42.2625 38.0312 38.1719Z" fill="#FEFFFE"/>
</svg>
