<svg width="74" height="73" viewBox="0 0 74 73" fill="none" xmlns="http://www.w3.org/2000/svg">
<path fill-rule="evenodd" clip-rule="evenodd" d="M9 0C4.02945 0 0 4.02945 0 9V64C0 68.9706 4.02945 73 9 73H65C69.9706 73 74 68.9706 74 64V9C74 4.02945 69.9706 0 65 0H9ZM46.625 46.2542L37 48.8708L27.3771 46.2563L26.6917 38.8729H31.4208L31.75 42.7146L37 44.1042L42.25 42.7146L42.7938 36.7437H26.5021L25.1771 22.8312H48.8229L48.35 27.4375H30.3792L30.8042 32.1333H47.9229L46.625 46.2542ZM55.75 15.1667H18.25L21.6313 52.6667L37 56.8333L52.3687 52.6667L55.75 15.1667Z" fill="#FEFFFE"/>
</svg>
