<svg width="72" height="72" viewBox="0 0 72 72" fill="none" xmlns="http://www.w3.org/2000/svg">
<path d="M12 0C8.8174 0 5.76516 1.26428 3.51472 3.51472C1.26428 5.76516 0 8.8174 0 12V60C0 63.1826 1.26428 66.2348 3.51472 68.4853C5.76516 70.7357 8.8174 72 12 72H60C63.1826 72 66.2348 70.7357 68.4853 68.4853C70.7357 66.2348 72 63.1826 72 60V12C72 8.8174 70.7357 5.76516 68.4853 3.51472C66.2348 1.26428 63.1826 0 60 0H12ZM41.336 52.22C44.216 54.54 47.0907 55.684 49.96 55.652C51.72 55.652 53.0693 55.3293 54.008 54.684C54.445 54.4003 54.8007 54.0077 55.0398 53.5447C55.279 53.0818 55.3935 52.5646 55.372 52.044C55.3781 51.4761 55.2594 50.9139 55.0244 50.3969C54.7895 49.8799 54.4438 49.4208 54.012 49.052C53.0733 48.2333 51.2973 47.412 48.684 46.588C45.5453 45.6813 43.1253 44.508 41.424 43.068C39.7547 41.628 38.904 39.6187 38.872 37.04C38.872 34.6053 39.928 32.5667 42.04 30.924C44.0933 29.2813 46.72 28.46 49.92 28.46C54.3787 28.46 57.956 29.5453 60.652 31.716L57.572 36.512C56.4629 35.6497 55.1907 35.0211 53.832 34.664C52.611 34.2549 51.3354 34.0324 50.048 34.004C48.528 34.004 47.3107 34.2827 46.396 34.84C45.4893 35.4 45.036 36.1333 45.036 37.04C45.036 38.0373 45.592 38.888 46.704 39.592C47.824 40.2693 49.7307 41.0173 52.424 41.836C55.68 42.804 57.9973 44.0947 59.376 45.708C60.7547 47.3213 61.444 49.3747 61.444 51.868C61.444 54.42 60.4613 56.62 58.496 58.468C56.56 60.2867 53.744 61.24 50.048 61.328C45.208 61.328 41.16 59.876 37.904 56.972L41.336 52.22ZM19.216 54.772C20.1547 55.3587 21.284 55.652 22.604 55.652C23.9827 55.652 25.1267 55.256 26.036 54.464C26.9427 53.6427 27.3973 52.22 27.4 50.196V28.988H33.34V51.34C33.252 54.8013 32.2547 57.2947 30.348 58.82C29.3047 59.702 28.0918 60.3609 26.784 60.756C25.5713 61.1253 24.3117 61.3179 23.044 61.328C20.844 61.328 18.8933 60.9467 17.192 60.184C15.3733 59.3653 13.848 57.9133 12.616 55.828L16.752 52.44C17.512 53.4667 18.3333 54.244 19.216 54.772Z" fill="#192C48"/>
</svg>
