<svg width="75" height="75" viewBox="0 0 75 75" fill="none" xmlns="http://www.w3.org/2000/svg">
<path d="M12.75 0.375C9.46795 0.375 6.32032 1.67879 3.99955 3.99955C1.67879 6.32032 0.375 9.46795 0.375 12.75V62.25C0.375 65.5321 1.67879 68.6797 3.99955 71.0004C6.32032 73.3212 9.46795 74.625 12.75 74.625H62.25C65.5321 74.625 68.6797 73.3212 71.0004 71.0004C73.3212 68.6797 74.625 65.5321 74.625 62.25V12.75C74.625 9.46795 73.3212 6.32032 71.0004 3.99955C68.6797 1.67879 65.5321 0.375 62.25 0.375H12.75ZM43.0027 54.2269C45.9727 56.6194 48.9372 57.7991 51.8962 57.7661C53.7112 57.7661 55.1028 57.4334 56.0708 56.7679C56.5215 56.4753 56.8882 56.0704 57.1348 55.593C57.3815 55.1156 57.4995 54.5822 57.4774 54.0454C57.4836 53.4598 57.3613 52.8799 57.119 52.3468C56.8766 51.8136 56.5202 51.3402 56.0749 50.9599C55.1069 50.1156 53.2754 49.2686 50.5804 48.4189C47.3436 47.4839 44.848 46.2739 43.0935 44.7889C41.372 43.3039 40.4948 41.2318 40.4618 38.5725C40.4618 36.0618 41.5508 33.9594 43.7288 32.2654C45.8463 30.5714 48.555 29.7244 51.855 29.7244C56.453 29.7244 60.1421 30.8436 62.9224 33.0821L59.7461 38.028C58.6024 37.1388 57.2904 36.4905 55.8893 36.1223C54.6301 35.7004 53.3146 35.4709 51.987 35.4416C50.4195 35.4416 49.1641 35.729 48.2209 36.3038C47.2859 36.8813 46.8184 37.6375 46.8184 38.5725C46.8184 39.601 47.3917 40.4782 48.5385 41.2042C49.6935 41.9027 51.6598 42.6741 54.4373 43.5184C57.795 44.5166 60.1847 45.8476 61.6065 47.5114C63.0282 49.1751 63.7391 51.2926 63.7391 53.8639C63.7391 56.4956 62.7258 58.7644 60.699 60.6701C58.7025 62.5456 55.7985 63.5288 51.987 63.6195C46.9958 63.6195 42.8212 62.1221 39.4635 59.1274L43.0027 54.2269ZM20.1915 56.8586C21.1595 57.4636 22.3241 57.7661 23.6854 57.7661C25.1071 57.7661 26.2869 57.3577 27.2246 56.541C28.1596 55.694 28.6285 54.2269 28.6313 52.1396V30.2689H34.7569V53.3194C34.6661 56.8889 33.6376 59.4601 31.6714 61.0331C30.5955 61.9427 29.3446 62.6222 27.996 63.0296C26.7454 63.4104 25.4464 63.6091 24.1391 63.6195C21.8704 63.6195 19.8587 63.2262 18.1042 62.4397C16.2287 61.5955 14.6557 60.0981 13.3852 57.9476L17.6505 54.4538C18.4343 55.5125 19.2812 56.3141 20.1915 56.8586Z" fill="#FEFFFE"/>
</svg>
