<svg width="94" height="94" viewBox="0 0 94 94" fill="none" xmlns="http://www.w3.org/2000/svg">
<path fill-rule="evenodd" clip-rule="evenodd" d="M19 10C14.0294 10 10 14.0294 10 19V75C10 79.9706 14.0294 84 19 84H75C79.9706 84 84 79.9706 84 75V19C84 14.0294 79.9706 10 75 10H19ZM36.002 42.8C37.7353 35.8667 42.0686 32.4 49.002 32.4C55.4474 32.4 58.3963 35.394 60.9442 37.9809L60.9446 37.9814L60.9452 37.9819C62.5114 39.572 63.924 41.0061 65.902 41.5C69.3686 42.3667 72.402 41.0667 75.002 37.6C73.2686 44.5334 68.9353 48 62.002 48C55.5611 48 52.6121 45.0083 50.0627 42.4221L50.0593 42.4187L50.0587 42.4181C48.4925 40.828 47.0799 39.394 45.102 38.9C41.6353 38.0334 38.602 39.3334 36.002 42.8ZM23.002 58.4C24.7353 51.4667 29.0686 48 36.002 48C42.4474 48 45.3963 50.994 47.9442 53.5809L47.9446 53.5814L47.9452 53.5819C49.5114 55.172 50.924 56.6061 52.902 57.1C56.3686 57.9667 59.402 56.6667 62.002 53.2C60.2686 60.1334 55.9353 63.6 49.002 63.6C42.5611 63.6 39.6121 60.6083 37.0627 58.0221L37.0593 58.0187L37.0587 58.0181C35.4925 56.428 34.0799 54.994 32.102 54.5C28.6353 53.6334 25.602 54.9334 23.002 58.4Z" fill="#FEFFFE"/>
</svg>
