<svg width="94" height="94" viewBox="0 0 94 94" fill="none" xmlns="http://www.w3.org/2000/svg">
<path fill-rule="evenodd" clip-rule="evenodd" d="M19 10C14.0294 10 10 14.0294 10 19V75C10 79.9706 14.0294 84 19 84H75C79.9706 84 84 79.9706 84 75V19C84 14.0294 79.9706 10 75 10H19ZM58.4504 65.6531L76 31.3469H59.7314L53.4981 43.3644H53.1682V31.3469H42.0444L36.0356 43.44L35.7056 43.4423V31.3469H21V46.0525H34.0854C29.2408 51.1446 21 51.6327 21 51.6327V65.6531C33.8815 64.4798 42.9221 59.3006 48.9813 51.4356H49.3113L41.9664 65.6531H58.4504Z" fill="#FEFFFE"/>
</svg>
