<svg width="72" height="72" viewBox="0 0 72 72" fill="none" xmlns="http://www.w3.org/2000/svg">
<path fill-rule="evenodd" clip-rule="evenodd" d="M16.875 0H55.125C64.4448 0 72 7.55519 72 16.875V55.125C72 64.4448 64.4448 72 55.125 72H16.875C7.55519 72 0 64.4448 0 55.125V16.875C0 7.55519 7.55519 0 16.875 0ZM46.1313 53.465L64 18.535H47.4357L41.089 30.771H40.753V18.535H29.427L23.309 30.848L22.973 30.8503V18.535H8V33.508H21.3233C16.3907 38.6927 8 39.1897 8 39.1897V53.465C21.1157 52.2703 30.3207 46.997 36.49 38.989H36.826L29.3477 53.465H46.1313Z" fill="#192C48"/>
</svg>
