<svg width="72" height="72" viewBox="0 0 72 72" fill="none" xmlns="http://www.w3.org/2000/svg">
<g clip-path="url(#clip0_132_66)">
<path d="M55.125 0H16.875C7.55519 0 0 7.55519 0 16.875V55.125C0 64.4448 7.55519 72 16.875 72H55.125C64.4448 72 72 64.4448 72 55.125V16.875C72 7.55519 64.4448 0 55.125 0Z" fill="#192C48"/>
<path d="M64 18.535L46.1313 53.465H29.3477L36.826 38.989H36.49C30.3207 46.997 21.1157 52.2703 8 53.465V39.1896C8 39.1896 16.3907 38.6926 21.3233 33.508H8V18.535H22.973V30.8503L23.309 30.848L29.427 18.535H40.753V30.771H41.089L47.4357 18.535H64Z" fill="#F5F5F3"/>
</g>
<defs>
<clipPath id="clip0_132_66">
<rect width="72" height="72" fill="white"/>
</clipPath>
</defs>
</svg>
