<svg width="74" height="74" viewBox="0 0 74 74" fill="none" xmlns="http://www.w3.org/2000/svg">
<path fill-rule="evenodd" clip-rule="evenodd" d="M9 0C4.02944 0 0 4.02944 0 9V65C0 69.9706 4.02944 74 9 74H65C69.9706 74 74 69.9706 74 65V9C74 4.02944 69.9706 0 65 0H9ZM13 38C13 24.21 24.13 13 38 13C51.71 13 63 24.29 63 38C63 51.71 51.87 63 38 63C24.13 63 13 51.79 13 38ZM57.1054 49.2469C59.1199 45.8415 60.1811 41.9567 60.1775 38C60.1651 35.1545 59.6165 32.3366 58.565 29.6925C57.8576 33.7904 56.0372 38.5081 55.3801 40.2111C55.2871 40.452 55.2175 40.6325 55.1775 40.7425L48.7275 57.355C52.197 55.4529 55.0908 52.6523 57.1054 49.2469ZM31.3875 27.1125H42.755C43.0775 27.1125 43.645 27.4375 43.645 27.8375C43.645 28.3225 43.3225 28.645 42.8375 28.645H41.63L48 45.2575L50.9825 37.5175C51.6526 35.6593 50.8847 34.0768 50.0659 32.3892C49.9957 32.2445 49.9251 32.099 49.855 31.9525C48.97 30.2575 48.16 28.4025 48.645 26.145C49.13 24.21 50.7425 22.5975 52.7575 22.275C48.8875 18.645 43.645 16.3875 38 16.3875C30.2575 16.3875 23.2425 20.58 19.6125 26.95L24.935 27.0325H28.2425C28.725 27.0325 29.0475 27.355 29.0475 27.8375C29.0475 28.3225 28.725 28.645 28.2425 28.645H26.3075L32.435 44.6925L35.8225 35.985L33 28.725H31.3875C30.905 28.725 30.58 28.4025 30.58 27.92C30.58 27.4375 30.9025 27.1125 31.3875 27.1125ZM17.4375 29.935C16.39 32.435 15.825 35.1775 15.825 38C15.825 46.79 20.825 54.37 28.325 57.92L17.4375 29.935ZM44.695 59.13L38.245 42.7575L31.8725 59.29C33.81 59.935 35.825 60.1775 38.0025 60.1775C40.34 60.1775 42.52 59.775 44.695 59.13Z" fill="#FEFFFE"/>
</svg>
